<svg xmlns="http://www.w3.org/2000/svg" viewBox="0 0 50 50"><defs><style>.cls-3{fill:#fff}.cls-5{fill:#24272e}</style></defs><g id="Layer_2" data-name="Layer 2"><g id="Layer_1-2" data-name="Layer 1"><path d="M8.09 46.37a1.89 1.89 0 01-1.78-2.23c.44-3.09 2-5 5.28-6.91 3-1.77 5.35-2.09 7.16-3.27 2.05 1.75 5.84 2.32 8.68 2.32 2.26 0 3.68-.82 3.68-2.59.37.34 2.17 1.77 7 3.54 3.87 1.42 5.5 4.38 5.61 7A1.82 1.82 0 0142 46.37z" fill="#edf1f4"/><path class="cls-3" d="M35.23 20.17c.56-5.71-2.51-9.41-6.85-10A7.68 7.68 0 0019.6 19a13.05 13.05 0 00.23 1.37l-.29-.12c0 2.51.19 8.78.19 11.29L19.54 33c0 1.18-.86 2.48 1 2.48a53.62 53.62 0 007.54 1.45c1.89 0 3.7-1.87 3.7-1.87-1.25-.62-1.2-.69-1.28-1.31a28.44 28.44 0 01-.11-3.85c2.86-1.24 4.37-5.03 4.84-9.73z"/><path d="M20.5 24.41s2.2 5.7 4.79 7.46A12.12 12.12 0 0030 33.93L29.73 30c-2.91.53-6.03-1.86-9.23-5.59z" opacity=".1"/><path class="cls-5" d="M27.41 25.3a1.33 1.33 0 00-.49.09 15.47 15.47 0 011.89 1.48.39.39 0 000-.15 1.42 1.42 0 00-1.4-1.42z"/><path class="cls-5" d="M38.53 36.06c-4.85-1.78-6.42-3.14-6.58-3.29l-.52-.48v-1.81a7 7 0 002.23-2.08 17 17 0 002.58-8.12 11.76 11.76 0 00-.86-6 10.88 10.88 0 00-4.17-6.61c-1.53-1.28-4.41-2.07-7.36-2a3.51 3.51 0 00-.44-1.5c-1.08-1.86-3.74-2.34-5.94-1.06s-3.12 3.81-2 5.67A3.43 3.43 0 0016.66 10a12.34 12.34 0 00-.39 7c.09.39.2.82.32 1.28.52 1.94 1.24 4.36 1.92 6.51l.09.29v.86c.05 2.15.1 4.3.1 5.55l-.14 1.11-.53.34a14.65 14.65 0 01-2.68 1.22 26.06 26.06 0 00-4.43 2C7.25 38.34 5.54 40.6 5.07 44a3.3 3.3 0 00.76 2.62 3 3 0 002.26 1H42a2.86 2.86 0 002.11-.86 3.47 3.47 0 00.89-2.57c-.16-2.83-1.91-6.45-6.47-8.13zm-10.15-4.78a6.8 6.8 0 001-.08 22.29 22.29 0 00.13 2.65 1.52 1.52 0 00.15.5c-.25.35-.84.68-2.26.68a15.71 15.71 0 01-7-1.43 1.79 1.79 0 00.11-.55l.19-1.39v-.13c0-1.26-.05-3.46-.1-5.67v-.47c1.83 3.34 4.65 5.89 7.78 5.89zm5.85-11.2c-.25 2.41-.91 6-2.77 7.87a4.13 4.13 0 01-2 1.2 4 4 0 01-1.05.13c-2 0-4.23-1.81-5.76-4.42a12 12 0 01-.65-1.08 14 14 0 01-.66-1.59c.44.2.87.43 1.3.66a4.41 4.41 0 00.49-2c-.46-.24-.9-.45-1.29-.64a6 6 0 01.3-1.72l.37-.15c4.75-2 6-5.43 7-6.63.93.53 1.87 1 2.74 1.46a8.62 8.62 0 011.98 6.91zm-16.33.64a2.53 2.53 0 01.64-1.72.12.12 0 01.05 0v-.05l.09-.07a1.27 1.27 0 01.82-.31 1.39 1.39 0 011 .46.28.28 0 01.09.1 2.29 2.29 0 01.4.74 2.86 2.86 0 01.11 1.39v.13a1.6 1.6 0 01-.11.39l-.09.2a2.89 2.89 0 01-.33.48 1.21 1.21 0 01-.16.16l-.07.06-.16.11a1.29 1.29 0 01-.63.17 1.36 1.36 0 01-1-.45 2.54 2.54 0 01-.65-1.79zM42.27 45s-.09.09-.31.09H8.09a.46.46 0 01-.37-.09.86.86 0 01-.18-.64c.37-2.59 1.63-4.21 4.68-6a26.42 26.42 0 014-1.85l.42-.16a18.54 18.54 0 002-.85c2.92 1.92 7.38 2.08 8.76 2.08 2.51 0 3.75-.88 4.36-1.83.42.26.93.55 1.56.86a40.16 40.16 0 004.32 1.85c2.9 1.06 4.69 3.26 4.8 5.88a1.14 1.14 0 01-.17.66z"/><path class="cls-3" d="M20.88 23.14a1.2 1.2 0 01-.31-.22 1.64 1.64 0 01-.24-.27l.07-.06a1.21 1.21 0 00.16-.16 2.89 2.89 0 00.33-.48l.09-.2a1.6 1.6 0 00.11-.39.43.43 0 000 .05 2.64 2.64 0 00.12.4.25.25 0 010 .07 1.91 1.91 0 010 .21c.23.8.05 1.2-.33 1.05z"/><path class="cls-3" d="M27.78 7.17A3.53 3.53 0 0026.59 7c-4.28 0-7.75 4.19-7.75 9.33a9.53 9.53 0 00.1 1.32 3.13 3.13 0 00-2 3.12 3 3 0 002.63 3.21 3 3 0 002.64-3.21 3.07 3.07 0 00-2.24-3.16v-.11c-.04-5.39 3.41-9.79 7.81-10.33z"/><path class="cls-5" d="M27.41 25.3a1.33 1.33 0 00-.49.09 1.37 1.37 0 00-.72.6 11.5 11.5 0 01-3.79-2.69 3.42 3.42 0 00.26-.46 4.41 4.41 0 00.49-2 .76.76 0 000-.15 4.62 4.62 0 00-.63-2.36 3.75 3.75 0 00-1.9-1.65l-.18-.06a3.09 3.09 0 00-1.84 0 1 1 0 00-.27.1 3.75 3.75 0 00-1.76 1.5 4.69 4.69 0 00-.69 2.47 4.18 4.18 0 002.61 4h.09a2.92 2.92 0 00.93.15h.19a2.9 2.9 0 00.59-.09 1.61 1.61 0 00.29-.09 3.39 3.39 0 001.15-.69c.27.27.55.53.85.79A10.5 10.5 0 0026 27a1.41 1.41 0 002.79-.1.39.39 0 000-.15 1.42 1.42 0 00-1.38-1.45zm-7.08-2.65l-.16.11a1.29 1.29 0 01-.63.17 1.36 1.36 0 01-1-.45 2.67 2.67 0 010-3.49.12.12 0 01.05 0v-.05l.09-.07a1.27 1.27 0 01.82-.31 1.39 1.39 0 011 .46.28.28 0 01.09.1 2.29 2.29 0 01.4.74 2.86 2.86 0 01.11 1.39v.13a1.6 1.6 0 01-.11.39l-.09.2a2.89 2.89 0 01-.33.48 1.21 1.21 0 01-.16.16z"/></g></g></svg>