<svg xmlns="http://www.w3.org/2000/svg" viewBox="0 0 50 50"><defs><style>.cls-3{fill:#24272e}</style></defs><g id="Layer_2" data-name="Layer 2"><g id="Layer_1-2" data-name="Layer 1"><path d="M31.3 46.5H14.18A6.23 6.23 0 018 40.27V13.81a4.67 4.67 0 014.67-4.67H25a4.67 4.67 0 013.31 1.38l6.48 7.25A4.67 4.67 0 0136 20.88v21a4.67 4.67 0 01-4.7 4.62z" fill="#edf1f4"/><path class="cls-3" d="M33.94 44.37a3.67 3.67 0 01-2.64 1.13H14.18A5.24 5.24 0 019 40.27V13.81a3.65 3.65 0 011.25-2.74V8.69A5.68 5.68 0 007 13.81v26.46a7.24 7.24 0 007.23 7.23H31.3a5.67 5.67 0 005.06-3.13z"/><path d="M37.13 41.11H18.45a4.67 4.67 0 01-4.67-4.67v-28a4.67 4.67 0 014.67-4.67h12.36a4.66 4.66 0 013.32 1.39l6.48 7.25a4.68 4.68 0 011.19 3.09v20.94a4.67 4.67 0 01-4.67 4.67z" fill="#fff"/><path class="cls-3" d="M37.13 42.36H18.45a5.92 5.92 0 01-5.92-5.92v-28a5.93 5.93 0 015.92-5.94h12.36A6 6 0 0135 4.26l6.52 7.29a5.94 5.94 0 011.51 3.95v20.94a5.93 5.93 0 01-5.9 5.92zM18.45 5A3.42 3.42 0 0015 8.42v28a3.42 3.42 0 003.42 3.42h18.71a3.42 3.42 0 003.42-3.42V15.5a3.43 3.43 0 00-.87-2.28L33.2 6a3.42 3.42 0 00-2.39-1z"/><path d="M31.26 4.49c2 .26 3.48 2.44 3.48 2.44s4.12 4.31 4.68 4.93 1.35 1.44 1.25 1.83-.48-.55-1.78-.64-5.28-.11-5.28-.11l-.69-.85V7.54s.46-1.54-1.66-3.05z" fill="#cad1d8"/><path class="cls-3" d="M33.89 21.49H20.81a.75.75 0 010-1.5h13.08a.75.75 0 010 1.5zM31.27 25.92H20.81a.75.75 0 010-1.5h10.46a.75.75 0 010 1.5z"/><path opacity=".1" d="M32.85 13.5l7.83 10.09-.01-9.9-7.82-.19z"/><path class="cls-3" d="M42.55 16.24h-2c0-1.44-.71-2.27-1.95-2.27h-4.85a2 2 0 01-2-2V7.2a2.32 2.32 0 00-.48-1.7A1.81 1.81 0 0030 5.05v-2a3.71 3.71 0 012.76 1.06 4.2 4.2 0 011 3.12V12h4.82c2.42 0 3.97 1.69 3.97 4.24z"/></g></g></svg>