<svg xmlns="http://www.w3.org/2000/svg" viewBox="0 0 50 50"><defs><style>.cls-3{fill:#24272e}</style></defs><g id="Layer_2" data-name="Layer 2"><g id="Layer_1-2" data-name="Layer 1"><rect x="3" y="8.01" width="40" height="32" rx="6" fill="#edf1f4"/><path class="cls-3" d="M28.7 17.42h-18a1 1 0 010-2h18a1 1 0 010 2zM25.1 22.44H10.7a1 1 0 010-2h14.4a1 1 0 010 2z"/><path class="cls-3" d="M22.36 38.76H9A4.75 4.75 0 014.25 34V14A4.75 4.75 0 019 9.26h28A4.75 4.75 0 0141.75 14v6.85l1-.22 1.53 1.14V14A7.26 7.26 0 0037 6.76H9A7.26 7.26 0 001.75 14v20A7.26 7.26 0 009 41.26h12.72z"/><path opacity=".1" d="M37.64 29.13l4.56-1.28 2.32 4.13 4.12 2.32-1.28 4.55 1.28 4.56-4.12 2.32-2.32 4.12-4.56-1.28-4.55 1.28-2.32-4.12-4.13-2.32 1.28-4.56-1.28-4.55 4.13-2.32 2.32-4.13 4.55 1.28z"/><path fill="#fff" d="M37.36 25.4l4.56-1.27 2.32 4.12 4.12 2.32-1.28 4.56 1.28 4.55L44.24 42l-2.32 4.13-4.56-1.29-4.55 1.29L30.49 42l-4.13-2.32 1.28-4.55-1.28-4.56 4.13-2.32 2.32-4.12 4.55 1.27z"/><path class="cls-3" d="M42.41 47.3l-5-1.42-5 1.42-2.57-4.57-4.56-2.56 1.41-5.05-1.41-5 4.56-2.56L32.32 23l5 1.42 5-1.42L45 27.52l4.57 2.56-1.42 5 1.42 5.05-4.57 2.6zm-14.87-8.11l3.68 2.07L33.29 45l4.07-1.14L41.43 45l2.07-3.69 3.69-2.07L46 35.12l1.15-4.06L43.5 29l-2.07-3.7-4.07 1.14-4.07-1.14-2.07 3.7-3.68 2.07 1.14 4.06z"/><path class="cls-3" d="M35.27 38.27l-3-3L33.31 34l2.08 1.4a2.23 2.23 0 002.38-.12l4.82-3.62 1.08 1.08-5.58 5.58a2 2 0 01-2.82-.05z"/></g></g></svg>